<?xml version="1.0" standalone="no"?>
<!DOCTYPE svg PUBLIC "-//W3C//DTD SVG 20010904//EN"
 "http://www.w3.org/TR/2001/REC-SVG-20010904/DTD/svg10.dtd">
<svg version="1.0" xmlns="http://www.w3.org/2000/svg"
 width="225.000000pt" height="225.000000pt" viewBox="0 0 225.000000 225.000000"
 preserveAspectRatio="xMidYMid meet">

<g transform="translate(0.000000,225.000000) scale(0.100000,-0.100000)"
fill="#000000" stroke="none">
<path d="M975 2239 c-240 -31 -486 -155 -658 -334 -527 -546 -371 -1448 308
-1785 361 -179 784 -152 1125 72 36 23 108 85 161 138 158 155 252 322 306
537 36 145 38 345 4 498 -76 339 -318 640 -628 781 -190 87 -407 119 -618 93z
m537 -589 c21 -6 51 -27 71 -50 81 -89 52 -223 -61 -272 -113 -50 -235 35
-236 164 0 62 40 122 97 149 48 21 76 23 129 9z m-702 -520 l0 -360 325 0 325
0 0 -85 0 -85 -425 0 -425 0 0 438 c0 241 3 442 7 445 3 4 48 7 100 7 l93 0 0
-360z"/>
</g>
</svg>
