<svg class="svg-icon" style="width: 1em; height: 1em;vertical-align: middle;fill: white;overflow: hidden;" viewBox="0 0 1024 1024" version="1.1" xmlns="http://www.w3.org/2000/svg"><path d="M860.3 235.3C757.9 176.1 568.1 64.4 512.7 64.2c-55.3 0.2-244.3 111.9-348.8 171.5-20.8 11.9-36 33-35.6 57.1 1.7 87.4 13.4 173.8 58.8 288.4 98.5 248.5 271.5 365.1 320 377.3 1.7 0.4 3.5 0.6 5.2 0.6 1.8 0 3.7-0.2 5.4-0.7 55.5-14.7 226.1-144 318.8-377.1 45.5-114.2 57.2-201.2 59-289.2 0.5-21.3-16-47.9-35.2-56.8zM776 561.6c-80 201.2-223.7 307.8-263.8 324.1-41.9-15.7-181.6-115.5-264.3-324.2-39.9-100.7-50.2-170.7-51.7-248.4-0.2-7.6 5.1-13.5 10.1-16.3 142.6-80.4 274.6-160 306.5-160.2 32 0.1 171 82.2 305.3 159.8 3.6 1.9 10 11.6 9.9 16.1-1.7 78.3-12 148.8-52 249.1z"  /><path d="M408.6 454.2h206.8c11.4 0 20.7 9.3 20.7 20.7v144.8c0 11.4-9.3 20.7-20.7 20.7H408.6c-11.4 0-20.7-9.3-20.7-20.7V474.8c0-11.4 9.3-20.6 20.7-20.6z m103.4 51c-17.1 0-31 12.9-31 29 0 10.7 6.3 19.9 15.5 24.9v27.6c0.1 8.5 7.1 15.2 15.5 15.1 8.5 0.1 15.4-6.6 15.5-15.1v-27.6c9.2-5 15.5-14.3 15.5-24.9 0-16.1-13.9-29-31-29z m62.1-109c-0.1-32-27.9-57.9-62.1-57.9s-62.1 25.9-62.1 57.9v57.9H419v-57.9h-0.1c0-48 41.7-86.9 93.1-86.9 51 0 92.5 38.3 93.1 85.8h0.1v59h-31v-57.9z"  /></svg>