<svg version="1.2" xmlns="http://www.w3.org/2000/svg" viewBox="0 0 194 194" width="36" height="36">
	<title>DeFi Page Nav Highlighted-svg</title>
	<defs>
		<clipPath clipPathUnits="userSpaceOnUse" id="cp1">
			<path d="m-82-55h572v305h-572z"/>
		</clipPath>
	</defs>
	<style>
		.s0 { fill: #45ff76 } 
	</style>
	<g id="Clip-Path: DeFi_Page_Nav_Highlighted" clip-path="url(#cp1)">
		<g id="DeFi_Page_Nav_Highlighted">
			<g id="Group_434">
				<path id="Path_536" fill-rule="evenodd" class="s0" d="m152.4 33.2q1.2 0.4 2.3 0.9 1.2 0.5 2.3 1.1 1.2 0.6 2.2 1.3 1.1 0.7 2.1 1.4c2.3 2 4 4.5 4 7.5q0 0.2 0 0.4 0 0.2-0.1 0.4 0 0.2-0.1 0.4 0 0.2-0.1 0.4 0.1 0.1 0.2 0.2 0 0.2 0 0.3 0.1 0.2 0.1 0.3 0 0.1 0 0.3v16.3q0 0.2 0 0.4 0 0.3 0 0.5-0.1 0.2-0.1 0.4 0 0.2-0.1 0.4 0.1 0.1 0.1 0.2 0.1 0.2 0.1 0.3 0 0.1 0 0.3 0 0.1 0 0.3v16.3q0 0.2 0 0.4 0 0.2 0 0.4-0.1 0.2-0.1 0.4 0 0.2-0.1 0.4 0.1 0.2 0.1 0.3 0.1 0.1 0.1 0.3 0 0.1 0 0.3 0 0.1 0 0.2v16.4q0 0.2 0 0.4 0 0.2 0 0.4-0.1 0.2-0.1 0.4 0 0.2-0.1 0.4 0.1 0.2 0.1 0.3 0.1 0.1 0.1 0.3 0 0.1 0 0.2 0 0.2 0 0.3v16.4c0 2.9-1.7 5.5-4 7.4q-1 0.8-2.1 1.5-1 0.7-2.2 1.3-1.1 0.6-2.3 1.1-1.1 0.5-2.4 0.9c-7.3 2.6-17.1 4.1-27.9 4.1q-1.7 0-3.4 0-1.7-0.1-3.4-0.2-1.7-0.1-3.4-0.2-1.7-0.2-3.4-0.4v11.7c0 3-1.7 5.5-4 7.5q-1 0.7-2.1 1.4-1.1 0.7-2.2 1.3-1.1 0.6-2.3 1.1-1.2 0.5-2.4 0.9c-7.3 2.6-17.1 4.2-27.9 4.2-10.8 0-20.6-1.6-28-4.2q-1.2-0.4-2.3-0.9-1.2-0.5-2.3-1.1-1.2-0.6-2.2-1.3-1.1-0.7-2.1-1.4c-2.3-2-4-4.5-4-7.5v-16.3q0-0.2 0-0.3 0-0.1 0-0.3 0.1-0.1 0.1-0.2 0-0.2 0.1-0.3-0.1-0.2-0.1-0.4 0-0.2-0.1-0.4 0-0.2 0-0.4 0-0.2 0-0.4v-16.4q0-0.1 0-0.3 0-0.1 0-0.3 0.1-0.1 0.1-0.2 0-0.2 0.1-0.3-0.1-0.2-0.1-0.4 0-0.2-0.1-0.4 0-0.2 0-0.4 0-0.2 0-0.4v-16.4q0-0.1 0-0.3 0-0.1 0-0.2 0.1-0.2 0.1-0.3 0-0.1 0.1-0.3-0.1-0.2-0.1-0.4 0-0.2 0-0.4-0.1-0.2-0.1-0.4 0-0.2 0-0.4c0-2.9 1.7-5.5 4-7.4q1-0.8 2.1-1.5 1-0.7 2.2-1.3 1.1-0.6 2.3-1.1 1.1-0.5 2.4-0.9c7.3-2.6 17.1-4.2 27.9-4.2q1.7 0 3.4 0.1 1.7 0 3.4 0.1 1.7 0.2 3.4 0.3 1.7 0.2 3.4 0.4v-9q0-0.2 0-0.3 0-0.2 0.1-0.3 0-0.1 0-0.3 0.1-0.1 0.1-0.2 0-0.2-0.1-0.4 0-0.2 0-0.4 0-0.2-0.1-0.5 0-0.2 0-0.4v-16.3q0-0.2 0-0.3 0-0.1 0.1-0.3 0-0.1 0-0.3 0.1-0.1 0.1-0.2 0-0.2-0.1-0.4 0-0.2 0-0.4 0-0.2-0.1-0.4 0-0.2 0-0.4c0-3 1.7-5.5 4-7.5q1-0.7 2.1-1.4 1.1-0.7 2.2-1.3 1.1-0.6 2.3-1.1 1.2-0.5 2.4-0.9c7.3-2.6 17.1-4.2 27.9-4.2 10.8 0 20.6 1.6 28 4.2zm-54.1 5.1q-0.9 0.3-1.9 0.7-1 0.4-1.9 0.9-0.9 0.5-1.8 1-0.9 0.6-1.7 1.2c-1.5 1.3-2 2.4-2 3.3 0 0.8 0.5 1.9 2 3.2q0.8 0.6 1.7 1.2 0.9 0.5 1.8 1 0.9 0.5 1.9 0.9 1 0.4 1.9 0.7c6.5 2.3 15.8 3.9 26.1 3.9 10.3 0 19.6-1.6 26.1-3.9q1-0.3 1.9-0.7 1-0.4 1.9-0.9 0.9-0.5 1.8-1 0.9-0.6 1.7-1.2c1.6-1.3 2.1-2.4 2.1-3.2 0-0.9-0.5-2-2.1-3.3q-0.8-0.6-1.7-1.2-0.9-0.5-1.8-1-0.9-0.5-1.9-0.9-0.9-0.4-1.9-0.7c-6.5-2.3-15.8-3.8-26.1-3.8-10.3 0-19.6 1.5-26.1 3.8zm-9.3 26.1c0 0.9 0.5 2 2 3.3q0.8 0.6 1.7 1.2 0.9 0.5 1.8 1 0.9 0.5 1.9 0.9 1 0.4 1.9 0.7c6.5 2.3 15.8 3.8 26.1 3.8 10.3 0 19.6-1.5 26.1-3.8q1-0.3 1.9-0.7 1-0.4 1.9-0.9 0.9-0.5 1.8-1 0.9-0.6 1.7-1.2c1.6-1.3 2.1-2.4 2.1-3.3v-10.6q-0.9 0.6-1.8 1.1-0.9 0.5-1.9 1-0.9 0.5-1.9 0.9-0.9 0.4-1.9 0.7c-7.4 2.7-17.2 4.2-28 4.2-10.8 0-20.6-1.5-27.9-4.2q-1-0.3-2-0.7-1-0.4-1.9-0.9-0.9-0.5-1.8-1-1-0.5-1.8-1.1zm0 12.7q1.1 0.2 2.2 0.5 1.2 0.2 2.3 0.5 1.1 0.3 2.2 0.7 1.1 0.3 2.1 0.7 1.3 0.4 2.4 0.9 1.2 0.5 2.3 1.1 1.2 0.6 2.2 1.3 1.1 0.6 2.1 1.4c2.3 2 4 4.5 4 7.5q0 0.2 0 0.4-0.1 0.2-0.1 0.4 0 0.2-0.1 0.4 0 0.2-0.1 0.4v0.1q1.8 0.3 3.5 0.5 1.7 0.1 3.5 0.3 1.7 0.1 3.4 0.1 1.8 0.1 3.5 0.1c10.3 0 19.6-1.5 26.1-3.9q1-0.3 1.9-0.7 1-0.4 1.9-0.9 0.9-0.4 1.8-1 0.9-0.6 1.7-1.2c1.6-1.3 2.1-2.4 2.1-3.2v-10.7q-0.9 0.6-1.8 1.1-0.9 0.6-1.9 1-0.9 0.5-1.9 0.9-0.9 0.4-1.9 0.8c-7.4 2.6-17.2 4.1-28 4.1-10.8 0-20.6-1.5-27.9-4.1q-1-0.4-2-0.8-1-0.4-1.9-0.9-0.9-0.4-1.8-1-1-0.5-1.8-1.1zm-45.2 7.5q-1 0.3-1.9 0.7-1 0.4-1.9 0.9-0.9 0.5-1.8 1.1-0.9 0.5-1.7 1.2c-1.6 1.3-2.1 2.3-2.1 3.2 0 0.8 0.5 1.9 2.1 3.2q0.8 0.7 1.7 1.2 0.9 0.6 1.8 1.1 0.9 0.4 1.9 0.8 0.9 0.4 1.9 0.8c6.5 2.3 15.8 3.8 26.1 3.8 10.3 0 19.6-1.5 26.1-3.8q0.9-0.4 1.9-0.8 1-0.4 1.9-0.8 0.9-0.5 1.8-1.1 0.9-0.5 1.7-1.2c1.5-1.3 2-2.4 2-3.2 0-0.9-0.5-1.9-2-3.2q-0.8-0.7-1.7-1.2-0.9-0.6-1.8-1.1-0.9-0.5-1.9-0.9-1-0.4-1.9-0.7c-6.5-2.3-15.8-3.8-26.1-3.8-10.3 0-19.6 1.5-26.1 3.8zm114.3 8.5q-0.9 0.5-1.9 1-0.9 0.4-1.9 0.8-1 0.5-1.9 0.8c-7.4 2.6-17.2 4.2-28 4.2q-1.7 0-3.4-0.1-1.7 0-3.4-0.1-1.7-0.1-3.4-0.3-1.7-0.2-3.4-0.4v11.8q0 0.2-0.1 0.4 0 0.2 0 0.4 0 0.2-0.1 0.4 0 0.2-0.1 0.4c0 0 0 0 0 0.1h0.1q1.7 0.2 3.4 0.4 1.8 0.2 3.5 0.3 1.7 0.2 3.4 0.2 1.8 0.1 3.5 0.1c10.3 0 19.6-1.5 26.1-3.8q1-0.4 1.9-0.8 1-0.4 1.9-0.8 0.9-0.5 1.8-1.1 0.9-0.5 1.7-1.2c1.6-1.3 2-2.4 2-3.2v-10.7q-0.8 0.6-1.7 1.2zm-123.7 17.7c0 0.8 0.5 1.9 2.1 3.2q0.8 0.6 1.7 1.2 0.9 0.6 1.8 1 0.9 0.5 1.9 0.9 0.9 0.4 1.9 0.7c6.5 2.4 15.8 3.9 26.1 3.9 10.3 0 19.6-1.5 26.1-3.9q0.9-0.3 1.9-0.7 1-0.4 1.9-0.9 0.9-0.4 1.8-1 0.9-0.6 1.7-1.2c1.5-1.3 2-2.4 2-3.2v-10.7q-0.8 0.6-1.7 1.1-1 0.6-1.9 1-0.9 0.5-1.9 0.9-1 0.4-2 0.8c-7.3 2.6-17.1 4.1-27.9 4.1-10.8 0-20.6-1.5-28-4.1q-0.9-0.4-1.9-0.8-1-0.4-1.9-0.9-1-0.4-1.9-1-0.9-0.5-1.8-1.1zm123.7 1.4q-0.9 0.5-1.9 1-0.9 0.5-1.9 0.9-1 0.4-1.9 0.7c-7.4 2.6-17.2 4.2-28 4.2q-1.7 0-3.4 0-1.7-0.1-3.4-0.2-1.7-0.1-3.4-0.3-1.7-0.1-3.4-0.4v11.8q0 0.2-0.1 0.4 0 0.2 0 0.4 0 0.2-0.1 0.4 0 0.2-0.1 0.4v0.1q1.7 0.3 3.5 0.5 1.7 0.1 3.4 0.3 1.8 0.1 3.5 0.2 1.8 0 3.5 0c10.3 0 19.6-1.5 26.1-3.8q1-0.3 1.9-0.7 1-0.4 1.9-0.9 0.9-0.5 1.8-1 0.9-0.6 1.7-1.2c1.6-1.3 2-2.4 2-3.3v-10.6q-0.8 0.6-1.7 1.1zm-123.7 17.7c0 0.9 0.5 1.9 2.1 3.2q0.8 0.7 1.7 1.2 0.9 0.6 1.8 1.1 0.9 0.5 1.9 0.9 0.9 0.4 1.9 0.7c6.5 2.3 15.8 3.8 26.1 3.8 10.3 0 19.6-1.5 26.1-3.8q0.9-0.3 1.9-0.7 1-0.4 1.9-0.9 0.9-0.5 1.8-1.1 0.9-0.5 1.7-1.2c1.5-1.3 2-2.3 2-3.2v-10.6q-0.8 0.5-1.7 1.1-1 0.5-1.9 1-0.9 0.5-1.9 0.9-1 0.4-2 0.7c-7.3 2.6-17.1 4.2-27.9 4.2-10.8 0-20.6-1.6-28-4.2q-0.9-0.3-1.9-0.7-1-0.4-1.9-0.9-1-0.5-1.9-1-0.9-0.6-1.8-1.1zm0 19c0 0.9 0.5 2 2.1 3.3q0.8 0.6 1.7 1.2 0.9 0.5 1.8 1 0.9 0.5 1.9 0.9 0.9 0.4 1.9 0.7c6.5 2.3 15.8 3.8 26.1 3.8 10.3 0 19.6-1.5 26.1-3.8q0.9-0.3 1.9-0.7 1-0.4 1.9-0.9 0.9-0.5 1.8-1 0.9-0.6 1.7-1.2c1.5-1.3 2-2.4 2-3.3v-10.6q-0.8 0.6-1.7 1.1-1 0.5-1.9 1-0.9 0.5-1.9 0.9-1 0.4-2 0.7c-7.3 2.6-17.1 4.2-27.9 4.2-10.8 0-20.6-1.6-28-4.2q-0.9-0.3-1.9-0.7-1-0.4-1.9-0.9-1-0.5-1.9-1-0.9-0.5-1.8-1.1z"/>
			</g>
		</g>
	</g>
</svg>