<svg width="240" height="100" viewBox="0 0 240 100" fill="none"
    xmlns="http://www.w3.org/2000/svg">
    <g clip-path="url(#clip0_3785_40206)">
        <path d="M0 1.52734H24.4501V74.5115H36.8525V50.3694H48.9614V74.5721H73.5093V98.8112H0V1.52734Z" fill="#1B0E5E"/>
        <path d="M73.5337 25.7535C73.5704 30.9918 73.607 36.2301 73.6315 41.4562C73.6437 44.2693 73.6315 47.0704 73.6315 50.0169H49.2181V13.6036H37.4272V1.55078H61.2658V25.802H73.5704L73.5092 25.7535H73.5337Z" fill="#1B0E5E"/>
        <path d="M160.816 33.9387C155.263 31.6954 154.003 25.2689 160.4 20.0064C159.788 18.1996 158.92 16.4899 158.638 14.6832C157.403 6.80155 163.996 0.423475 171.86 2.09681C175.627 2.8971 179.309 3.21237 183.101 2.9456C183.969 2.88498 184.862 2.99411 184.703 4.00053C184.556 4.8857 185.021 6.41353 183.125 6.29228C181.547 6.19527 179.945 6.26802 178.282 6.26802C181.156 12.3915 180.569 17.654 176.716 21.1462C172.949 24.5777 168.093 24.7232 162.308 21.5221C161.929 21.8737 161.488 22.2132 161.158 22.6376C160.082 23.9957 159.421 25.5114 160.106 27.2453C160.767 28.9187 162.32 29.3431 163.922 29.4401C166.919 29.6098 169.928 29.6583 172.937 29.7796C177.56 29.9615 180.924 32.3987 181.792 36.2062C182.685 40.1228 181.498 43.3967 178.502 46.0279C174.099 49.896 165.17 51.0479 159.886 48.4531C155.042 46.0886 154.137 40.4865 157.99 36.4002C158.81 35.5271 159.813 34.8117 160.84 33.9144L160.816 33.9387ZM168.68 34.5692C166.931 34.5692 165.586 34.4965 164.265 34.6056C163.629 34.6541 162.736 34.8724 162.43 35.3331C161.476 36.7761 160.51 38.2918 159.996 39.9287C159.348 41.9659 160.363 43.8696 162.234 44.973C165.745 47.0586 173.218 46.5615 176.398 44.0151C178.098 42.657 178.832 40.8867 178.428 38.7404C178.025 36.6427 176.557 35.4544 174.563 35.1149C172.496 34.7632 170.38 34.7147 168.692 34.5692H168.68ZM175.542 12.9492C175.053 11.2153 174.771 9.03267 173.83 7.17745C172.032 3.60039 167.212 3.30937 165.035 6.42566C162.87 9.52982 163.005 16.3323 165.317 19.3152C166.576 20.9522 168.301 21.5342 170.307 21.328C172.386 21.1098 173.854 20.0064 174.466 18.042C174.93 16.5384 175.126 14.95 175.542 12.9492Z" fill="#1B0E5E"/>
        <path d="M136.634 2.02425C136.94 5.10416 137.234 8.06281 137.527 11.0942C136.854 11.2518 136.341 11.3731 135.717 11.5065C135.423 10.8638 135.13 10.2818 134.91 9.67552C133.736 6.55923 131.473 4.84952 128.134 4.67976C126.14 4.57063 124.134 4.59488 122.128 4.58276C120.746 4.58276 119.804 5.27392 119.78 6.63199C119.719 12.0279 119.755 17.4117 119.755 23.1956C123.156 22.9288 126.752 22.8076 130.286 22.3225C132.28 22.0558 132.904 20.1278 133.589 18.3696C134.078 18.4666 134.531 18.5515 135.008 18.6485C135.008 22.1528 135.032 25.5722 134.983 28.9795C134.983 29.3554 134.592 29.7192 134.372 30.0829C134.005 29.8647 133.405 29.7313 133.307 29.416C132.366 26.6635 130.237 25.8026 127.583 25.7662C124.929 25.7298 122.275 25.7662 119.511 25.7662C119.511 30.1314 119.498 34.5815 119.511 39.0316C119.511 40.1836 119.621 41.3476 119.719 42.4996C119.89 44.4639 120.611 45.4582 122.593 45.4825C125.749 45.531 128.916 45.3127 132.06 45.0096C133.833 44.8277 135.032 43.5545 135.827 42.0267C136.573 40.6201 137.209 39.1529 137.931 37.6372C138.383 37.6978 138.86 37.7585 139.619 37.8555C139.105 41.3355 138.604 44.7549 138.102 48.1744H111.034C110.594 47.3741 110.533 46.7435 111.585 46.2343C112.93 45.5795 113.676 44.4275 113.786 42.9482C113.945 40.802 114.153 38.6558 114.153 36.5095C114.153 27.6821 114.117 18.8546 114.056 10.0272C114.056 9.09349 113.897 8.15981 113.799 7.22614C113.627 5.69831 112.881 4.58276 111.536 3.75821C111.083 3.47933 110.888 2.80029 110.398 2H136.622L136.634 2.02425Z" fill="#1B0E5E"/>
        <path d="M110.362 98.7402C110.9 97.9763 111.157 97.3094 111.646 96.9941C112.906 96.1696 113.677 95.1025 113.787 93.6353C113.958 91.4406 114.154 89.2337 114.154 87.039C114.154 78.3207 114.117 69.6023 114.056 60.884C114.056 59.8412 114.093 58.7135 113.713 57.7799C113.236 56.6279 112.356 55.6336 111.634 54.5787C111.279 54.0694 110.9 53.5723 110.264 52.6992H123.119C122.703 53.4389 122.544 54.2028 122.092 54.4696C120.453 55.4154 119.829 56.8583 119.719 58.5923C119.572 60.8476 119.413 63.103 119.413 65.3705C119.376 73.1551 119.401 80.9277 119.438 88.7123C119.438 90.2523 119.56 91.8043 119.756 93.3322C120.012 95.345 120.881 96.2544 122.911 96.2787C125.516 96.3151 128.146 96.2181 130.739 95.9756C133.124 95.7452 134.824 94.3022 135.925 92.2409C136.683 90.8343 137.295 89.355 138.066 87.7301C138.494 87.7665 139.069 87.815 139.949 87.8878C139.387 91.4648 138.897 94.8843 138.261 98.2794C138.2 98.6068 137.271 98.9948 136.745 98.9827C131.29 98.9463 125.834 98.813 120.392 98.7523C117.285 98.716 114.178 98.7523 110.362 98.7523V98.7402Z" fill="#1B0E5E"/>
        <path d="M218.657 6.99548C219.77 5.69804 220.528 4.59461 221.506 3.70944C224.344 1.11456 227.671 0.447647 231.255 1.85422C234.851 3.26079 236.514 6.17094 236.636 9.8935C236.795 14.962 236.795 20.0426 236.881 25.1112C236.905 27.0391 237.419 28.6882 239.352 29.6461C239.682 29.8038 239.731 30.5192 239.988 31.174C236.404 31.174 233.236 31.1861 230.068 31.1497C229.726 31.1497 229.175 30.8466 229.126 30.5919C229.065 30.3009 229.347 29.7189 229.628 29.5976C231.426 28.7731 231.891 27.2089 231.94 25.5113C232.074 20.7702 232.209 16.0291 232.135 11.288C232.074 7.74727 229.934 5.58891 226.656 5.33427C222.95 5.05538 219.244 7.46838 219.036 11.0212C218.73 16.2352 218.95 21.4856 219.182 26.6996C219.219 27.6333 220.418 28.5185 221.066 29.4279C221.396 29.8887 221.702 30.3615 222.265 31.174C218.461 31.174 215.244 31.1861 212.027 31.1497C211.734 31.1497 211.196 30.8466 211.183 30.6647C211.171 30.313 211.342 29.7431 211.611 29.6219C213.519 28.7246 213.96 27.0634 213.972 25.2203C214.009 20.4307 214.009 15.641 213.984 10.8393C213.984 9.05684 213.458 7.61389 211.44 7.08036C210.254 6.76509 210.474 5.94055 211.244 5.40702C213.238 4.0247 215.293 2.72726 217.348 1.40557C218.18 0.872043 219.011 1.32069 218.987 2.31499C218.938 3.78219 218.803 5.23727 218.693 7.00761L218.657 6.99548Z" fill="#1B0E5E"/>
        <path d="M194.304 81.3282C192.935 86.2512 195.356 92.2292 199.466 94.3875C203.943 96.7399 208.786 95.2606 213.202 90.1314C213.642 90.3982 214.094 90.6771 214.535 90.9317C212.089 99.0801 202.793 102.572 195.735 97.9161C189.987 94.1329 188.311 88.446 189.29 81.9951C190.219 75.8838 193.485 71.361 199.674 69.433C207.257 67.0685 214.253 71.652 214.828 79.2548C214.975 81.1949 214.865 81.3161 212.92 81.3161C207.306 81.3161 201.68 81.3161 196.066 81.3161H194.304V81.3282ZM208.847 78.7091C209.19 75.1684 206.731 72.2098 203.16 71.7975C198.842 71.3003 195.307 74.1741 194.745 78.7091H208.859H208.847Z" fill="#1B0E5E"/>
        <path d="M179.126 53.1953C178.832 53.8622 178.746 54.5655 178.355 54.8565C177.218 55.7053 176.924 56.7724 177.107 58.0577C177.205 58.761 177.303 59.4885 177.56 60.1554C179.444 65.0905 181.364 70.0135 183.394 75.2397C183.725 74.6698 183.932 74.3788 184.067 74.0756C185.718 70.2197 187.394 66.3759 188.959 62.4957C189.449 61.2831 189.742 59.9735 189.987 58.6761C190.256 57.221 189.779 55.9963 188.605 55.002C188.177 54.6383 187.993 53.9714 187.577 53.2074H196.861C196.775 53.7773 196.836 54.3351 196.616 54.7595C194.512 58.8701 192.213 62.8837 190.268 67.067C186.562 75.0699 183.101 83.1941 179.419 91.2091C178.465 93.2947 177.218 95.2833 175.897 97.1749C174.735 98.8362 172.949 99.6607 170.894 99.8062C169.61 99.9032 168.252 99.6728 167.787 98.3875C167.469 97.5266 167.53 96.2898 167.934 95.4774C168.521 94.3012 169.805 94.3618 171.041 94.5922C173.622 95.0651 174.649 94.6407 175.786 92.3611C177.511 88.9053 179.113 85.3888 180.703 81.8724C180.899 81.448 180.801 80.7932 180.618 80.3325C177.792 73.2632 174.991 66.194 172.044 59.1732C171.408 57.6454 170.172 56.3601 169.292 54.9293C168.998 54.4564 168.925 53.8622 168.705 53.2074H179.101L179.126 53.1953Z" fill="#1B0E5E"/>
        <path d="M207.404 39.9792C207.93 40.3429 208.334 40.6218 208.725 40.8765C205.802 50.0313 194.794 52.8444 187.883 46.2602C179.786 38.5362 182.55 23.6217 192.812 19.6566C199.906 16.9162 207.221 20.3963 208.713 27.2958C208.97 28.4598 208.921 29.6845 209.019 31.0668C208.248 31.1032 207.661 31.1517 207.074 31.1517C201.337 31.1517 195.613 31.2002 189.877 31.1275C188.531 31.1153 188.005 31.5397 188.189 32.8129C188.495 34.9228 188.482 37.166 189.229 39.1182C191.822 45.9207 200.383 47.4849 205.472 42.2224C206.12 41.5555 206.695 40.8037 207.416 39.9792H207.404ZM203.111 28.6175C203.245 24.6887 200.689 21.9241 196.8 21.6452C192.824 21.3663 189.375 24.3735 188.947 28.6175H203.111Z" fill="#1B0E5E"/>
        <path d="M73.5948 25.8051C73.6438 23.3315 73.7172 20.8579 73.7172 18.3842C73.7416 12.8186 73.7172 7.26504 73.7172 1.57812H85.8505V25.7566C81.7286 25.7566 77.6311 25.7566 73.5337 25.7566L73.5826 25.8051H73.5948Z" fill="#1B0E5E"/>
        <path d="M156.473 82.9152C156.412 79.6291 157.244 76.0278 153.917 73.9544C150.541 71.8445 147.422 73.5057 144.597 75.5549C143.007 73.8089 142.995 73.5542 144.536 72.0385C147.447 69.2011 150.933 68.3644 154.822 69.4194C158.663 70.4501 160.999 74.1362 161.072 79.1441C161.134 82.9516 161.146 86.7469 161.121 90.5543C161.097 93.222 161.855 95.441 164.387 96.702C163.8 99.6122 163.665 99.6849 160.913 98.8725C158.602 98.1935 157.366 96.5565 156.779 94.1799C156.107 95.1863 155.617 96.0594 154.994 96.8233C152.816 99.503 149.967 100.352 146.652 99.5394C144.377 98.9816 142.775 97.5266 142.236 95.247C141.625 92.6642 142.077 90.1178 144.34 88.5415C146.627 86.9409 149.208 85.7283 151.74 84.5158C153.171 83.8246 154.786 83.4851 156.486 82.9394L156.473 82.9152ZM156.669 85.0372C154.382 86.0315 152.486 86.6741 150.774 87.6563C149.465 88.4081 148.217 89.4388 147.263 90.6028C146.297 91.7911 146.395 93.3311 147.288 94.6285C148.144 95.8654 149.441 96.12 150.847 95.8411C153.538 95.3076 155.446 93.7434 156.107 91.1242C156.547 89.3418 156.461 87.4259 156.657 85.0493L156.669 85.0372Z" fill="#1B0E5E"/>
        <path d="M232.16 97.7706C231.34 98.3769 230.949 98.9346 230.533 98.9468C227.145 99.0195 223.757 98.9831 219.819 98.9831C220.259 98.2192 220.43 97.5402 220.846 97.2856C222.118 96.5216 222.84 95.4303 222.852 94.048C222.925 88.6521 222.925 83.2562 222.889 77.8603C222.889 76.4052 222.106 75.3988 220.638 74.9259C220.259 74.8047 219.733 74.3439 219.745 74.065C219.77 73.7012 220.21 73.2768 220.565 73.0343C222.387 71.7975 224.234 70.5728 226.118 69.4088C226.472 69.1905 227.072 69.0207 227.402 69.1662C227.696 69.2996 227.94 69.9059 227.928 70.3061C227.891 71.9551 227.769 73.5921 227.904 75.3624C228.246 74.7925 228.576 74.2226 228.931 73.6527C230.472 71.2519 232.331 69.2633 235.413 68.9844C237.847 68.754 239.768 70.0029 239.963 71.8703C240.147 73.6527 239.23 74.6107 237.432 74.453C236.942 74.4045 236.453 74.2469 235.988 74.0771C232.625 72.7554 230.362 73.483 229.053 76.8175C228.258 78.8304 227.891 81.0736 227.757 83.232C227.573 86.1421 227.83 89.0644 227.83 91.9867C227.83 94.6907 228.466 96.946 232.148 97.7827L232.16 97.7706Z" fill="#1B0E5E"/>
        <path d="M152.156 39.5907C152.461 39.7968 152.804 40.0272 153.55 40.5244C151.752 42.804 150.089 45.0472 148.254 47.1449C147.642 47.8482 146.627 48.3211 145.71 48.6364C143.239 49.4609 141.258 47.8846 141.661 45.314C141.967 43.4224 142.591 41.5793 143.227 39.7604C144.805 35.2861 146.529 30.8724 148.046 26.3738C148.437 25.2218 148.303 23.888 148.413 22.6391C147.398 23.3181 146.321 23.9365 145.392 24.7004C144.585 25.3673 143.936 26.2161 143.178 27.0164C142.138 26.6041 141.796 26.01 142.628 25.0884C144.315 23.1847 145.918 21.2082 147.716 19.4258C148.743 18.4072 150.125 17.6676 151.654 18.4557C153.256 19.2803 153.403 20.8566 153.097 22.3602C152.682 24.3488 152.107 26.3131 151.446 28.229C149.832 32.9216 148.119 37.5778 146.444 42.2462C146.346 42.5008 146.199 42.7676 146.187 43.0344C146.187 43.5558 146.26 44.0772 146.309 44.5986C146.86 44.4531 147.593 44.4773 147.948 44.1257C149.367 42.7312 150.663 41.2276 152.156 39.5786V39.5907Z" fill="#1B0E5E"/>
        <path d="M156.18 3.5171C156.155 5.46932 154.627 6.9244 152.657 6.88802C150.713 6.83952 149.208 5.28744 149.257 3.35946C149.306 1.41936 150.859 -0.0357096 152.829 0.000667267C154.834 0.0491697 156.204 1.47999 156.18 3.5171Z" fill="#1B0E5E"/>
    </g>
    <defs>
        <clipPath id="clip0_3785_40206">
            <rect width="240" height="100" fill="white"/>
        </clipPath>
    </defs>
</svg>
