<svg width="48" height="48" viewBox="0 0 48 48" fill="none" xmlns="http://www.w3.org/2000/svg">
<rect x="0.5" y="0.5" width="47" height="47" rx="11.5" fill="white" fill-opacity="0.05"/>
<rect x="0.5" y="0.5" width="47" height="47" rx="11.5" stroke="#37393D"/>
<path d="M28.6667 19.3333L19.3333 28.6667M20.6667 20.6667H20.68M27.3333 27.3333H27.3467M36 24C36 30.6274 30.6274 36 24 36C17.3726 36 12 30.6274 12 24C12 17.3726 17.3726 12 24 12C30.6274 12 36 17.3726 36 24ZM21.3333 20.6667C21.3333 21.0349 21.0349 21.3333 20.6667 21.3333C20.2985 21.3333 20 21.0349 20 20.6667C20 20.2985 20.2985 20 20.6667 20C21.0349 20 21.3333 20.2985 21.3333 20.6667ZM28 27.3333C28 27.7015 27.7015 28 27.3333 28C26.9651 28 26.6667 27.7015 26.6667 27.3333C26.6667 26.9651 26.9651 26.6667 27.3333 26.6667C27.7015 26.6667 28 26.9651 28 27.3333Z" stroke="#C54EFF" strokeWidth="2.3" strokeLinecap="round" strokeLinejoin="round"/>
</svg>
