<svg width="48" height="48" viewBox="0 0 48 48" fill="none" xmlns="http://www.w3.org/2000/svg">
<rect x="0.5" y="0.5" width="47" height="47" rx="11.5" fill="white" fill-opacity="0.05"/>
<rect x="0.5" y="0.5" width="47" height="47" rx="11.5" stroke="#37393D"/>
<path d="M36 24.6645L26.6667 24.6645M12 24.6645L21.3333 24.6645M17.3333 14V33.9979M30.6667 14V33.9979M16.2667 34H31.7333C33.2268 34 33.9735 34 34.544 33.7094C35.0457 33.4537 35.4537 33.0457 35.7094 32.544C36 31.9735 36 31.2268 36 29.7333V22.5333C36 19.5464 36 18.0529 35.4187 16.9121C34.9074 15.9085 34.0915 15.0926 33.0879 14.5813C31.9471 14 30.4536 14 27.4667 14H20.5333C17.5464 14 16.0529 14 14.9121 14.5813C13.9085 15.0926 13.0926 15.9085 12.5813 16.9121C12 18.0529 12 19.5464 12 22.5333V29.7333C12 31.2268 12 31.9735 12.2906 32.544C12.5463 33.0457 12.9543 33.4537 13.456 33.7094C14.0265 34 14.7732 34 16.2667 34ZM21.3333 21.9979H26.6667V27.3312H21.3333V21.9979Z" stroke="#C54EFF" stroke-width="2.3" stroke-linejoin="round"/>
</svg>
