<svg version="1.2" xmlns="http://www.w3.org/2000/svg" viewBox="0 0 2276 744" width="2276" height="744">
	<title>Zero G Style 2 Logo With Text White-svg</title>
	<defs>
		<clipPath clipPathUnits="userSpaceOnUse" id="cp1">
			<path d="m-132-888h2552v2552h-2552z"/>
		</clipPath>
	</defs>
	<style>
		tspan { white-space:pre } 
		.s0 { fill: #ffffff } 
		.s1 { fill: none } 
		.t2 { font-size: 160px;line-height: 160px;fill: #ffffff;font-weight: 500;font-family: "ZeroGRegularRegular", "Zero G" } 
	</style>
	<g id="Clip-Path: Zero_G_Style_2_Logo_With_Text_White" clip-path="url(#cp1)">
		<g id="Zero_G_Style_2_Logo_With_Text_White">
			<g id="Group_5">
				<g id="Group_3">
					<path id="Path_5" fill-rule="evenodd" class="s0" d="m771.3 287.9c32.2 9.1 90.1 45.4 90.1 133.8 0.1 88.5-54.3 107.1-73.6 110.9-23.7 93.4-87.2 125.7-138.8 138.9-57.5 14.8-117.4 20.3-173.7 20.4-56.3 0-116.3-5.6-173.7-20.3-51.7-13.3-115.2-45.5-139-138.8-19.3-3.9-73.6-18.4-73.6-110.9 0-92.6 58-124.8 90.1-133.8 52.6-148 175.9-204.6 296.1-204.6 120.1 0 243.5 56.6 296 204.4zm-236.2-172.5c-107.8-17.9-101.9 82.2-39.9 69.1 139.9-29.6 240 68.7 240 68.7 0 0-60.5-114.5-200.2-137.7zm7.3 516c1.2-18.8-49.8-19.7-67-19.7-17.2 0-68.2 0.9-67.1 19.7 0.9 13.9 46.7 13.9 67.1 13.9 20.4 0 66.2 0 67-13.9zm204-303.5c-41.7-52.9-156.9-71.9-271.1-71.8-114.1 0-229.4 18.9-271 71.9-22.8 29-33.5 132.7 1.2 209.8 45.8 101.6 165.5 42.3 269.9 42.3 104.4 0 224.1 59.3 269.8-42.4 34.8-77.1 24-180.8 1.2-209.8z"/>
					<path id="Path_6" class="s0" d="m667.6 321.2l2.8 7.2c1.7 4.5 3.9 8.8 6.5 12.8 2.6 4 5.7 7.7 9.1 11.1 3.4 3.4 7.1 6.4 11.1 9 4 2.7 8.3 4.8 12.8 6.6l7.2 2.8-7.2 2.8c-4.5 1.7-8.8 3.9-12.8 6.5-4 2.6-7.7 5.6-11.1 9-3.4 3.4-6.4 7.2-9.1 11.2-2.6 4-4.8 8.3-6.5 12.7l-2.8 7.3-2.8-7.3c-1.7-4.4-3.9-8.7-6.5-12.7-2.6-4-5.7-7.8-9-11.2-3.4-3.4-7.2-6.4-11.2-9-4-2.6-8.3-4.8-12.8-6.5l-7.2-2.8 7.2-2.8c4.5-1.7 8.8-3.9 12.8-6.5 4-2.7 7.8-5.7 11.1-9.1 3.4-3.4 6.5-7.1 9.1-11.1 2.6-4 4.8-8.3 6.5-12.8z"/>
					<path id="Path_7" class="s0" d="m630.8 417.4l1.5 4.1q1.4 3.8 3.5 7.2 2.1 3.4 4.9 6.3 2.8 3 6.1 5.2 3.3 2.3 7 3.9l3.9 1.6-3.9 1.6q-3.7 1.5-7 3.8-3.3 2.3-6.1 5.2-2.8 2.9-4.9 6.3-2.1 3.4-3.4 7.2l-1.6 4.2-1.5-4.2q-1.3-3.7-3.4-7.2-2.1-3.4-4.9-6.3-2.8-2.9-6.1-5.2-3.3-2.3-7-3.8l-3.9-1.6 3.9-1.6q3.7-1.6 7-3.8 3.3-2.3 6.1-5.2 2.8-3 4.9-6.4 2.1-3.4 3.4-7.2z"/>
					<path id="Path_8" class="s0" d="m351.7 552.5c2.3 1.3 4.1 3.3 5.1 5.8 1.1 2.4 1.3 5.1 0.7 7.7-0.7 2.6-2.1 4.9-4.2 6.5-2.1 1.7-4.6 2.6-7.3 2.7-33.5 2.2-76.6 0-98.2-22-20.1-20.3-39.7-61.7-42.7-156-2.9-88.8 134.7-113.9 97.7-15.7-7.6 20-33.1 122.6 48.9 171z"/>
				</g>
				<path id="Rectangle_1" class="s1" d="m335.1-510h1742.4v1796.6h-1742.4z"/>
				<text id="Zero-G" style="transform: matrix(1.018,0,0,2.344,962,223)" >
					<tspan x="0" y="139.6" class="t2">Zero-G</tspan><tspan  y="139.6" class="t2">
</tspan>
				</text>
			</g>
		</g>
	</g>
</svg>