<svg xmlns="http://www.w3.org/2000/svg" xmlns:xlink="http://www.w3.org/1999/xlink" width="901" height="203.5" viewBox="0 0 901 203.5">
  <defs>
    <linearGradient id="linear-gradient" x1="0.949" y1="0.5" x2="-0.016" y2="0.5" gradientUnits="objectBoundingBox">
      <stop offset="0" stop-color="#3fff7f"/>
      <stop offset="1" stop-color="#fff"/>
    </linearGradient>
    <filter id="Path_218" x="281.552" y="51.021" width="509.145" height="120.487" filterUnits="userSpaceOnUse">
      <feOffset dy="3" input="SourceAlpha"/>
      <feGaussianBlur stdDeviation="3" result="blur"/>
      <feFlood flood-opacity="0.161"/>
      <feComposite operator="in" in2="blur"/>
      <feComposite in="SourceGraphic"/>
    </filter>
    <linearGradient id="linear-gradient-2" x1="0.626" y1="0.43" x2="0.09" y2="0.904" gradientUnits="objectBoundingBox">
      <stop offset="0" stop-color="#83ffa0"/>
      <stop offset="1" stop-color="#05cb8e"/>
    </linearGradient>
    <filter id="Path_5" x="-9" y="-6.001" width="276.393" height="221.497" filterUnits="userSpaceOnUse">
      <feOffset dy="3" input="SourceAlpha"/>
      <feGaussianBlur stdDeviation="3" result="blur-2"/>
      <feFlood flood-opacity="0.161"/>
      <feComposite operator="in" in2="blur-2"/>
      <feComposite in="SourceGraphic"/>
    </filter>
    <filter id="_beta_" x="787" y="109.748" width="123" height="63" filterUnits="userSpaceOnUse">
      <feOffset dy="3" input="SourceAlpha"/>
      <feGaussianBlur stdDeviation="3" result="blur-3"/>
      <feFlood flood-opacity="0.161"/>
      <feComposite operator="in" in2="blur-3"/>
      <feComposite in="SourceGraphic"/>
    </filter>
    <clipPath id="clip-Zero-G_Beta_Logo_with_Drop_Shadow_For_light_backgrounds_">
      <rect width="901" height="203.5"/>
    </clipPath>
  </defs>
  <g id="Zero-G_Beta_Logo_with_Drop_Shadow_For_light_backgrounds_" data-name="Zero-G Beta Logo with Drop Shadow (For light backgrounds)" clip-path="url(#clip-Zero-G_Beta_Logo_with_Drop_Shadow_For_light_backgrounds_)">
    <g id="Group_502" data-name="Group 502" transform="translate(1324 -5750.003)">
      <g id="Group_501" data-name="Group 501" transform="translate(-1324 5750.003)">
        <g id="Group_171" data-name="Group 171" transform="translate(0 0)">
          <g id="Group_170" data-name="Group 170">
            <g id="Group_169" data-name="Group 169">
              <g transform="matrix(1, 0, 0, 1, 0, 0)" filter="url(#Path_218)">
                <path id="Path_218-2" data-name="Path 218" d="M75.414-180.925l-48.4,77.22H76.124V-91.5H11.111v-9.936l48.4-77.22H11.821v-12.208H75.414ZM104.8-135.643V-103.7h44.43V-91.5H91.88v-99.365h56.638v12.208H104.8v30.8h40.172v12.208ZM224.6-91.5l-21.009-36.765H178.327V-91.5H165.41v-99.365h38.468a30.922,30.922,0,0,1,15.756,4.188,30.953,30.953,0,0,1,11.427,11.356,30.542,30.542,0,0,1,4.188,15.685A30.346,30.346,0,0,1,230.21-142.6,31.353,31.353,0,0,1,216.8-131.1l22.57,39.6Zm-46.275-87.015v37.9h25.551a18.241,18.241,0,0,0,9.44-2.555,19.032,19.032,0,0,0,6.885-6.956,18.618,18.618,0,0,0,2.555-9.511,18.241,18.241,0,0,0-2.555-9.44,19.2,19.2,0,0,0-6.885-6.885,18.241,18.241,0,0,0-9.44-2.555Zm117.392,88.86a50.025,50.025,0,0,1-25.693-6.885A51.175,51.175,0,0,1,251.36-115.2a50.025,50.025,0,0,1-6.885-25.693,50.025,50.025,0,0,1,6.885-25.693,51.175,51.175,0,0,1,18.666-18.666,50.025,50.025,0,0,1,25.693-6.885,50.025,50.025,0,0,1,25.693,6.885,51.175,51.175,0,0,1,18.666,18.666,50.025,50.025,0,0,1,6.885,25.693,50.025,50.025,0,0,1-6.885,25.693,51.175,51.175,0,0,1-18.666,18.666A50.025,50.025,0,0,1,295.719-89.652Zm0-13.059a37.5,37.5,0,0,0,19.163-5.11,37.728,37.728,0,0,0,13.911-13.911A37.5,37.5,0,0,0,333.9-140.9a37.5,37.5,0,0,0-5.11-19.163,38.273,38.273,0,0,0-13.911-13.982,37.1,37.1,0,0,0-19.163-5.181,37.1,37.1,0,0,0-19.163,5.181,38.83,38.83,0,0,0-13.982,13.982,37.1,37.1,0,0,0-5.181,19.163,37.1,37.1,0,0,0,5.181,19.163,38.273,38.273,0,0,0,13.982,13.911A37.5,37.5,0,0,0,295.719-102.711ZM391.251-120.6H357.184v-10.646h34.068Zm58.909-20.441h52.1v6.672a40.938,40.938,0,0,1-6.53,22.357A46.609,46.609,0,0,1,477.84-95.684a52.414,52.414,0,0,1-24.983,6.033,50.025,50.025,0,0,1-25.693-6.885A51.176,51.176,0,0,1,408.5-115.2a50.025,50.025,0,0,1-6.885-25.693,50.025,50.025,0,0,1,6.885-25.693,51.176,51.176,0,0,1,18.666-18.666,50.025,50.025,0,0,1,25.693-6.885,49.145,49.145,0,0,1,24.628,6.388,51.627,51.627,0,0,1,18.241,17.176l-10.362,7.665a38,38,0,0,0-13.769-13.343,37.014,37.014,0,0,0-18.737-4.968,37.1,37.1,0,0,0-19.163,5.181,38.83,38.83,0,0,0-13.982,13.982,37.1,37.1,0,0,0-5.181,19.163,37.1,37.1,0,0,0,5.181,19.163,38.272,38.272,0,0,0,13.982,13.911,37.5,37.5,0,0,0,19.163,5.11q13.769,0,23.564-7.239a30.448,30.448,0,0,0,12.208-18.737H450.16Z" transform="translate(279.44 249.16)" fill="url(#linear-gradient)"/>
              </g>
              <g id="Group_144" data-name="Group 144">
                <g id="Group_3" data-name="Group 3">
                  <g transform="matrix(1, 0, 0, 1, 0, 0)" filter="url(#Path_5)">
                    <path id="Path_5-2" data-name="Path 5" d="M246.752,68.384C229.171,18.911,187.914-.007,147.709,0S66.255,18.943,48.681,68.422C37.927,71.44,18.528,82.213,18.534,113.179S36.711,149,43.17,150.278c7.937,31.225,29.182,42.006,46.467,46.439,19.223,4.924,39.271,6.784,58.11,6.78s38.887-1.871,58.108-6.8c17.284-4.43,38.525-15.217,46.449-46.458,6.447-1.283,24.627-7.521,24.622-37.109S257.53,71.4,246.764,68.384Zm-79.042-57.7c46.711,7.768,66.982,46.065,66.982,46.065s-33.5-32.871-80.3-22.972c-20.729,4.385-22.7-29.1,13.333-23.108ZM147.745,187.956c-6.83,0-22.129,0-22.428-4.65-.4-6.3,16.673-6.593,22.426-6.594s22.811.293,22.429,6.586c-.286,4.654-15.6,4.657-22.427,4.658m90.268-35.993c-15.293,34.008-55.356,14.164-90.272,14.17S72.77,185.987,57.464,152c-11.62-25.811-8.026-60.5-.408-70.2,13.933-17.718,52.483-24.053,90.665-24.061s76.735,6.326,90.674,24.026c7.621,9.688,11.24,44.38-.381,70.2" transform="translate(-18.53 0)" fill="url(#linear-gradient-2)"/>
                  </g>
                  <path id="Path_6" data-name="Path 6" d="M510.529,213.793l.9,2.34a22.261,22.261,0,0,0,12.75,12.745l2.339.9-2.339.9a22.263,22.263,0,0,0-12.746,12.75l-.9,2.34-.9-2.339a22.262,22.262,0,0,0-12.75-12.746l-2.339-.9,2.339-.9a22.264,22.264,0,0,0,12.742-12.75Z" transform="translate(-316.647 -133.763)" fill="url(#linear-gradient-2)"/>
                  <path id="Path_7" data-name="Path 7" d="M490.506,300.348l.489,1.332a12.43,12.43,0,0,0,6.928,7.29l1.266.513-1.266.515A12.43,12.43,0,0,0,491,317.289l-.488,1.332-.489-1.332A12.428,12.428,0,0,0,483.094,310l-1.266-.514,1.266-.514a12.43,12.43,0,0,0,6.924-7.292Z" transform="translate(-309.116 -188.274)" fill="url(#linear-gradient-2)"/>
                  <path id="Path_8" data-name="Path 8" d="M170.26,286.9a3.925,3.925,0,0,1-1.817,7.337c-10.814.709-24.742-.018-31.734-7.114-6.473-6.559-12.818-19.918-13.789-50.358-.915-28.682,43.512-36.78,31.57-5.094-2.45,6.48-10.71,39.615,15.771,55.229" transform="translate(-83.766 -130.742)" fill="url(#linear-gradient-2)"/>
                </g>
              </g>
            </g>
          </g>
        </g>
      </g>
      <g transform="matrix(1, 0, 0, 1, -1324, 5750)" filter="url(#_beta_)">
        <text id="_beta_2" data-name="[beta]" transform="translate(796 151.75)" fill="#45ff76" font-size="39" font-family="THICCCBOI-Medium, THICCCBOI" font-weight="500"><tspan x="0" y="0">[beta]</tspan></text>
      </g>
    </g>
  </g>
</svg>
