<svg version="1.2" xmlns="http://www.w3.org/2000/svg" viewBox="0 0 194 194" width="36" height="36">
	<title>Portfolio Page Nav Highlighted-svg</title>
	<defs>
		<clipPath clipPathUnits="userSpaceOnUse" id="cp1">
			<path d="m0-28h572v305h-572z"/>
		</clipPath>
	</defs>
	<style>
		.s0 { fill: #45ff76 } 
	</style>
	<g id="Clip-Path: Portfolio_Page_Nav_Highlighted" clip-path="url(#cp1)">
		<g id="Portfolio_Page_Nav_Highlighted">
			<g id="Group_437">
				<path id="Path_537" fill-rule="evenodd" class="s0" d="m139.8 43.9c1.4 0.6 2.7 1.5 3.8 2.6 1.1 1.1 2 2.4 2.6 3.8 0.6 1.5 0.9 3 0.9 4.6v83.2q0 0.5-0.2 0.9-0.1 0.5-0.5 0.8-0.3 0.3-0.7 0.5-0.5 0.2-1 0.2h-37l-8.8 8.8q-0.4 0.3-0.8 0.5-0.4 0.2-0.9 0.2-0.5 0-0.9-0.2-0.5-0.2-0.8-0.5l-8.8-8.8h-37.1q-0.4 0-0.9-0.2-0.4-0.2-0.8-0.5-0.3-0.3-0.5-0.8-0.1-0.4-0.2-0.9v-83.2c0.1-1.6 0.4-3.1 1-4.6 0.6-1.4 1.4-2.7 2.5-3.8 1.1-1.1 2.4-2 3.9-2.6 1.4-0.6 3-0.9 4.5-0.9h76.1c1.6 0 3.1 0.3 4.6 0.9zm-68.8 75.2h52.3c-0.7-13.1-17.2-11.2-19.7-18q-0.1-0.7-0.1-1.5 0-0.7 0-1.5-0.1-0.8-0.1-1.5 0-0.8 0.1-1.5c1-0.6 2.9-4.1 3.2-7.1 0.8 0 2.1-0.8 2.4-4 0.2-1.7-0.4-2.8-1-3 2.4-3.2 2-16.1-7.2-16.1l-1.5-2.9c-13.2 0-18.1 10.3-14.2 19q-0.4 0.3-0.6 0.6-0.3 0.3-0.4 0.7-0.2 0.4-0.2 0.8 0 0.5 0.1 0.9c0.4 3.2 1.6 3.9 2.5 4 0.3 3 2.2 6.5 3.2 7.1q0 0.7 0 1.5 0 0.7 0 1.5 0 0.7 0 1.5-0.1 0.8-0.1 1.5c-2.5 6.8-17.9 4.9-18.7 18z"/>
			</g>
		</g>
	</g>
</svg>