<svg version="1.2" xmlns="http://www.w3.org/2000/svg" viewBox="0 0 194 194" width="194" height="194">
	<title>Wrap Page Nav Highlighted-svg</title>
	<defs>
		<clipPath clipPathUnits="userSpaceOnUse" id="cp1">
			<path d="m-77-66h572v305h-572z"/>
		</clipPath>
	</defs>
	<style>
		.s0 { fill: #45ff76 } 
	</style>
	<g id="Clip-Path: Wrap_Page_Nav_Highlighted" clip-path="url(#cp1)">
		<g id="Wrap_Page_Nav_Highlighted">
			<g id="Group_438">
				<path id="Path_538" class="s0" d="m125.9 45l-23.8 23.8h14.3v30.9h-33.3v19h38c1.9 0 3.8-0.4 5.5-1.1 1.7-0.7 3.3-1.7 4.6-3.1 1.4-1.3 2.4-2.9 3.1-4.6 0.7-1.7 1.1-3.6 1.1-5.5v-35.6h14.3zm-52.4 30.9c-1.8 0-3.7 0.4-5.4 1.1-1.8 0.7-3.3 1.7-4.6 3.1-1.4 1.3-2.4 2.9-3.1 4.6-0.8 1.7-1.1 3.6-1.1 5.5v35.7h-14.3l23.8 23.7 23.8-23.7h-14.3v-31h33.3v-19z"/>
			</g>
		</g>
	</g>
</svg>